<svg width="18" height="21" viewBox="0 0 18 21" fill="none" xmlns="http://www.w3.org/2000/svg">
<g id="apple-iphone.svg" clip-path="url(#clip0_1_580)">
<path id="Vector" d="M16.8233 15.6662C16.5319 16.3454 16.1719 16.993 15.7489 17.5992C15.1839 18.4062 14.7198 18.9639 14.3642 19.2744C13.8117 19.7815 13.2182 20.0425 12.5837 20.0572C12.1292 20.0572 11.5799 19.9278 10.9401 19.6647C10.2982 19.4027 9.70898 19.2744 9.16918 19.2744C8.60411 19.2744 7.99798 19.4027 7.34871 19.6647C6.70055 19.9278 6.17652 20.0656 5.77561 20.0782C5.16845 20.1046 4.5613 19.8373 3.95625 19.2744C3.57007 18.9376 3.08708 18.3589 2.50729 17.5402C1.88645 16.6679 1.37611 15.6524 0.976245 14.4981C0.547974 13.2491 0.333313 12.0411 0.333313 10.871C0.333313 9.53142 0.622685 8.37502 1.20248 7.40688C1.64101 6.64662 2.26795 6.01208 3.02289 5.5644C3.76733 5.1179 4.61716 4.87748 5.48519 4.86781C5.96923 4.86781 6.60374 5.01723 7.38978 5.31186C8.17585 5.6065 8.68091 5.75592 8.90085 5.75592C9.06711 5.75592 9.62585 5.58019 10.5771 5.23189C11.4746 4.90884 12.2323 4.77521 12.8531 4.82782C14.5367 4.96356 15.8005 5.62649 16.6412 6.82188C15.1365 7.73415 14.3926 9.01055 14.4073 10.649C14.4199 11.9254 14.884 12.9871 15.7931 13.83C16.195 14.2146 16.664 14.5224 17.1768 14.738C17.0653 15.0611 16.9474 15.3694 16.8233 15.6662ZM12.9646 0.480929C12.9646 1.48058 12.5984 2.41498 11.8714 3.27889C10.9916 4.3059 9.92891 4.90043 8.77665 4.80678C8.76158 4.68107 8.75418 4.55456 8.75458 4.42796C8.75458 3.46725 9.17125 2.44024 9.91518 1.59948C10.2856 1.17437 10.757 0.819757 11.3284 0.537751C11.8987 0.259954 12.4374 0.106324 12.9446 0.0800171C12.9584 0.214706 12.9646 0.348344 12.9646 0.480929Z" fill="#555555"/>
</g>
<defs>
<clipPath id="clip0_1_580">
<rect width="17.3333" height="20" fill="white" transform="translate(0.333313 0.0800171)"/>
</clipPath>
</defs>
</svg>
