<svg width="12" height="21" viewBox="0 0 12 21" fill="none" xmlns="http://www.w3.org/2000/svg">
<rect width="12" height="21" fill="#1E1E1E"/>
<rect width="1920" height="5049.02" transform="translate(-367 -134.5)" fill="white"/>
<rect width="1920" height="4512" transform="translate(-367 -23.5)" fill="white"/>
<rect x="-16.5" y="-12" width="197" height="423.69" rx="5.5" fill="white"/>
<rect x="-16.5" y="-12" width="197" height="423.69" rx="5.5" stroke="#F3F3F3"/>
<g clip-path="url(#clip0_0_1)">
<g clip-path="url(#clip1_0_1)">
<g clip-path="url(#clip2_0_1)">
<path d="M11.6747 3.81195H0V2.16468C0.000397343 1.77369 0.155892 1.39883 0.432361 1.12236C0.708827 0.845894 1.08369 0.6904 1.47467 0.690002H10.2C10.591 0.6904 10.9659 0.845894 11.2423 1.12236C11.5188 1.39883 11.6743 1.77369 11.6747 2.16468V3.81195ZM0.67542 3.13653H10.9993V2.16468C10.9991 1.95276 10.9148 1.74958 10.7649 1.59974C10.6151 1.4499 10.4119 1.36562 10.2 1.36542H1.47467C1.26279 1.36572 1.05967 1.45002 0.909847 1.59985C0.76002 1.74967 0.67572 1.95279 0.67542 2.16468V3.13653Z" fill="#555555"/>
<path d="M11.6747 17.0228H0V3.13654H11.6747V17.0228ZM0.67542 16.3474H10.9993V3.81196H0.67542V16.3474Z" fill="#555555"/>
<path d="M6.62242 2.56165H5.05207C4.9625 2.56165 4.8766 2.52607 4.81327 2.46274C4.74994 2.39941 4.71436 2.31351 4.71436 2.22394C4.71436 2.13438 4.74994 2.04848 4.81327 1.98514C4.8766 1.92181 4.9625 1.88623 5.05207 1.88623H6.6228C6.71234 1.88623 6.79827 1.92181 6.8616 1.98514C6.92494 2.04848 6.96054 2.13438 6.96054 2.22394C6.96054 2.26832 6.95174 2.31227 6.93474 2.35326C6.9178 2.39426 6.89287 2.43151 6.86147 2.46287C6.83007 2.49424 6.7928 2.5191 6.7518 2.53606C6.71074 2.553 6.6668 2.5617 6.62242 2.56165Z" fill="#555555"/>
<path d="M10.2 20.69H1.47467C1.08375 20.6896 0.708953 20.5341 0.432493 20.2578C0.156035 19.9814 0.000496647 19.6066 0 19.2157V16.3474H11.6747V19.2157C11.6742 19.6066 11.5187 19.9814 11.2422 20.2578C10.9657 20.5341 10.5909 20.6896 10.2 20.69ZM0.67542 17.0228V19.2157C0.67572 19.4275 0.760033 19.6306 0.909867 19.7804C1.05971 19.9301 1.26283 20.0144 1.47467 20.0146H10.2C10.4119 20.0144 10.615 19.9301 10.7648 19.7804C10.9147 19.6306 10.9989 19.4275 10.9993 19.2157V17.0228H0.67542Z" fill="#555555"/>
<path d="M5.83689 19.2873C6.27644 19.2873 6.63276 18.9311 6.63276 18.4915C6.63276 18.0519 6.27644 17.6956 5.83689 17.6956C5.39734 17.6956 5.04102 18.0519 5.04102 18.4915C5.04102 18.9311 5.39734 19.2873 5.83689 19.2873Z" fill="#555555"/>
</g>
</g>
</g>
<defs>
<clipPath id="clip0_0_1">
<rect width="20" height="20" fill="white" transform="translate(-4 0.690002)"/>
</clipPath>
<clipPath id="clip1_0_1">
<rect width="20" height="20" fill="white" transform="translate(-4 0.690002)"/>
</clipPath>
<clipPath id="clip2_0_1">
<rect width="12" height="20" fill="white" transform="translate(0 0.690002)"/>
</clipPath>
</defs>
</svg>
