<svg width="20" height="20" viewBox="0 0 20 20" fill="none" xmlns="http://www.w3.org/2000/svg">
<g id="icon-khuyen-mai.svg" clip-path="url(#clip0_1_673)">
<path id="Vector" d="M15.59 19.6574H4.15105C3.51212 19.6566 2.89959 19.4022 2.4479 18.9499C1.99621 18.4975 1.74226 17.8843 1.74176 17.2448V8.50696H17.9993V17.2448C17.9989 17.8844 17.745 18.4976 17.2933 18.9499C16.8415 19.4023 16.229 19.6568 15.59 19.6574ZM2.41226 9.17805V17.2448C2.41275 17.7062 2.59608 18.1487 2.92205 18.475C3.24802 18.8014 3.69001 18.985 4.15105 18.9856H15.59C16.051 18.985 16.493 18.8014 16.819 18.475C17.145 18.1487 17.3283 17.7062 17.3288 17.2448V9.17805H2.41226Z" fill="#F32E2E"/>
<path id="Vector_2" d="M18.3699 9.17806H1.37228C1.00846 9.17767 0.659645 9.03283 0.402378 8.77535C0.145113 8.51787 0.000394394 8.1687 0 7.80451V6.36389C0.000394394 5.99973 0.145113 5.6506 0.402378 5.39309C0.659645 5.13559 1.00846 4.99076 1.37228 4.99036H18.3699C18.7337 4.99085 19.0825 5.13572 19.3397 5.3932C19.597 5.65069 19.7417 5.99976 19.7423 6.36389V7.80451C19.7417 8.16864 19.597 8.51774 19.3397 8.77522C19.0825 9.0327 18.7337 9.17761 18.3699 9.17806ZM1.37228 5.66147C1.18625 5.66176 1.00791 5.73587 0.876361 5.86753C0.744819 5.9992 0.670787 6.17769 0.67049 6.36389V7.80451C0.67069 7.99077 0.74469 8.16935 0.876252 8.30103C1.00782 8.4327 1.18622 8.50677 1.37228 8.50696H18.3699C18.556 8.50664 18.7343 8.43258 18.8659 8.3009C18.9974 8.16922 19.0714 7.99077 19.0717 7.80451V6.36389C19.0714 6.17769 18.9974 5.9992 18.8659 5.86753C18.7343 5.73587 18.556 5.66176 18.3699 5.66147H1.37228Z" fill="#F32E2E"/>
<path id="Vector_3" d="M9.6495 5.65734C8.85311 5.65734 8.12002 5.55145 7.46627 5.34155C6.26537 4.9564 4.95046 4.05712 4.85883 2.68918C4.83778 2.3708 4.88491 2.0516 4.99707 1.75293C5.10924 1.45425 5.28386 1.18301 5.50922 0.957345C5.7474 0.721118 6.03514 0.540939 6.35155 0.429887C6.66795 0.318836 7.00511 0.2797 7.33853 0.315319C7.8086 0.367516 8.25447 0.576305 8.6635 0.934602C8.85595 1.10498 9.02976 1.29532 9.18202 1.50244C9.8875 2.4528 10.2403 3.77674 10.2019 5.32738L10.1941 5.64653L9.87486 5.65435C9.79963 5.65635 9.72447 5.65734 9.6495 5.65734ZM7.09679 0.973003C6.68015 0.973532 6.28049 1.13844 5.98451 1.43196C5.82776 1.59078 5.70617 1.78086 5.62768 1.98982C5.54919 2.19879 5.51555 2.42196 5.52896 2.64481C5.57366 3.32188 6.15996 4.21744 7.67079 4.7025C8.22731 4.88109 8.85273 4.97579 9.53331 4.98548C9.51989 4.04258 9.33847 2.83831 8.64415 1.90249C8.52002 1.73368 8.3784 1.57847 8.22169 1.43942C7.91776 1.17285 7.59595 1.01924 7.26479 0.982325C7.20898 0.9761 7.15292 0.97299 7.09679 0.973003Z" fill="#F32E2E"/>
<path id="Vector_4" d="M10.092 5.6614C10.0175 5.6614 9.94306 5.6614 9.86519 5.65879L9.54596 5.65096L9.53809 5.33144C9.51654 4.4467 9.62158 3.6354 9.85099 2.91955C10.2358 1.71752 11.1343 0.401034 12.5009 0.309689C12.819 0.288645 13.1378 0.335835 13.4362 0.448102C13.7345 0.560368 14.0054 0.73512 14.2308 0.960664C14.4669 1.19898 14.6471 1.48697 14.7581 1.80369C14.8691 2.12041 14.9082 2.45792 14.8726 2.79167C14.8205 3.26219 14.6119 3.7081 14.2539 4.11785C14.0836 4.31037 13.8934 4.48433 13.6866 4.63684C12.7825 5.30944 11.5444 5.6614 10.092 5.6614ZM12.644 0.97707C12.6112 0.97707 12.5781 0.97707 12.5449 0.980425C11.8688 1.02517 10.9737 1.61201 10.4894 3.12424C10.3111 3.68126 10.2161 4.30726 10.2067 4.98843C11.1484 4.97501 12.352 4.79344 13.2869 4.0981C13.456 3.97433 13.6115 3.83312 13.7511 3.67679C14.0174 3.37255 14.1709 3.05004 14.2073 2.71897C14.2323 2.48509 14.2047 2.2486 14.1267 2.02672C14.0487 1.80484 13.9223 1.60317 13.7566 1.43641C13.4602 1.14326 13.0607 0.978315 12.644 0.97707Z" fill="#F32E2E"/>
<path id="Vector_5" d="M12.9509 9.17806H6.79022V4.99036H12.9509V9.17806ZM7.46074 8.50696H12.2804V5.66147H7.46074V8.50696Z" fill="#F32E2E"/>
<path id="Vector_6" d="M11.665 19.6574H8.18408V8.50696H11.665V19.6574ZM8.8546 18.9863H10.9945V9.17805H8.8546V18.9863Z" fill="#F32E2E"/>
</g>
<defs>
<clipPath id="clip0_1_673">
<rect width="20" height="19.3548" fill="white" transform="translate(0 0.302551)"/>
</clipPath>
</defs>
</svg>
