<svg width="20" height="21" viewBox="0 0 20 21" fill="none" xmlns="http://www.w3.org/2000/svg">
<g id="icon-am-thanh.svg" clip-path="url(#clip0_1_595)">
<path id="Vector" d="M1.52379 10.46C1.52379 5.82079 5.25474 2.05999 9.85711 2.05999C14.4595 2.05999 18.1904 5.82079 18.1904 10.46V12.46H16.0079C15.85 12.46 15.6986 12.5232 15.587 12.6357C15.4754 12.7483 15.4126 12.9009 15.4126 13.06V19.46C15.4126 19.7912 15.6793 20.06 16.0079 20.06H17C17.6314 20.06 18.237 19.8071 18.6836 19.3571C19.1301 18.907 19.3809 18.2965 19.3809 17.66V10.46C19.3809 5.15839 15.1166 0.859985 9.85711 0.859985C4.5976 0.859985 0.333313 5.15839 0.333313 10.46V17.66C0.333313 18.2965 0.584163 18.907 1.03068 19.3571C1.47719 19.8071 2.0828 20.06 2.71427 20.06H3.70633C3.86419 20.06 4.0156 19.9968 4.12723 19.8843C4.23885 19.7717 4.30157 19.6191 4.30157 19.46V13.06C4.30157 12.9009 4.23885 12.7483 4.12723 12.6357C4.0156 12.5232 3.86419 12.46 3.70633 12.46H1.52379V10.46ZM16.6032 13.66H18.1904V17.66C18.1904 17.9783 18.065 18.2835 17.8418 18.5085C17.6185 18.7336 17.3157 18.86 17 18.86H16.6032V13.66ZM1.52379 13.66H3.11109V18.86H2.71427C2.39853 18.86 2.09573 18.7336 1.87247 18.5085C1.64921 18.2835 1.52379 17.9783 1.52379 17.66V13.66ZM10.4524 10.26C10.4524 10.1009 10.3896 9.94825 10.278 9.83572C10.1664 9.72319 10.015 9.65999 9.85711 9.65999C9.69925 9.65999 9.54785 9.72319 9.43625 9.83572C9.32458 9.94825 9.26191 10.1009 9.26191 10.26V20.26C9.26191 20.4191 9.32458 20.5717 9.43625 20.6843C9.54785 20.7968 9.69925 20.86 9.85711 20.86C10.015 20.86 10.1664 20.7968 10.278 20.6843C10.3896 20.5717 10.4524 20.4191 10.4524 20.26V10.26ZM6.88093 12.26C7.03878 12.26 7.19018 12.3232 7.30185 12.4357C7.41345 12.5483 7.47618 12.7009 7.47618 12.86V17.06C7.47618 17.2191 7.41345 17.3717 7.30185 17.4843C7.19018 17.5968 7.03878 17.66 6.88093 17.66C6.72307 17.66 6.57167 17.5968 6.46003 17.4843C6.34841 17.3717 6.28569 17.2191 6.28569 17.06V12.86C6.28569 12.7009 6.34841 12.5483 6.46003 12.4357C6.57167 12.3232 6.72307 12.26 6.88093 12.26ZM13.4286 12.86C13.4286 12.7009 13.3658 12.5483 13.2542 12.4357C13.1426 12.3232 12.9912 12.26 12.8333 12.26C12.6754 12.26 12.524 12.3232 12.4124 12.4357C12.3008 12.5483 12.238 12.7009 12.238 12.86V17.06C12.238 17.2191 12.3008 17.3717 12.4124 17.4843C12.524 17.5968 12.6754 17.66 12.8333 17.66C12.9912 17.66 13.1426 17.5968 13.2542 17.4843C13.3658 17.3717 13.4286 17.2191 13.4286 17.06V12.86Z" fill="#555555"/>
</g>
<defs>
<clipPath id="clip0_1_595">
<rect width="19.3333" height="20" fill="white" transform="translate(0.333313 0.859985)"/>
</clipPath>
</defs>
</svg>
