<svg width="20" height="21" viewBox="0 0 20 21" fill="none" xmlns="http://www.w3.org/2000/svg">
<g id="icon-phu-kien.svg" clip-path="url(#clip0_1_626)">
<path id="Vector" d="M19.2471 6.39835H18.8533V2.89876C18.8531 2.69873 18.7736 2.50693 18.6321 2.36549C18.4907 2.22405 18.2989 2.14449 18.0989 2.14429H14.1935C13.9935 2.14449 13.8017 2.22403 13.6601 2.36546C13.5187 2.5069 13.439 2.69869 13.4387 2.89876V6.39835H13.0454C12.8453 6.39855 12.6534 6.47815 12.5119 6.61966C12.3703 6.7612 12.2907 6.95307 12.2905 7.1532V13.7651C12.2909 13.9651 12.3705 14.1569 12.512 14.2983C12.6535 14.4398 12.8453 14.5193 13.0454 14.5195H15.7351V17.9588C15.7345 18.2911 15.6021 18.6096 15.367 18.8445C15.1319 19.0793 14.8132 19.2113 14.4809 19.2115H6.77293C6.44056 19.2114 6.12179 19.0795 5.88659 18.8446C5.65139 18.6097 5.51897 18.2912 5.51837 17.9588V14.5195H9.16553C9.4436 14.519 9.71007 14.4083 9.90673 14.2117C10.1033 14.0151 10.214 13.7487 10.2145 13.4706V5.36405C10.214 5.08602 10.1033 4.81952 9.90673 4.62292C9.71007 4.42632 9.4436 4.31565 9.16553 4.31515H7.21987V0.442069C7.21987 0.332781 7.1764 0.227973 7.09913 0.150695C7.02187 0.0734168 6.91707 0.0299988 6.8078 0.0299988C6.69847 0.0299988 6.59367 0.0734168 6.51639 0.150695C6.43912 0.227973 6.3957 0.332781 6.3957 0.442069V4.31179H3.82476V0.442069C3.82476 0.332781 3.78135 0.227973 3.70407 0.150695C3.62679 0.0734168 3.52198 0.0299988 3.41269 0.0299988C3.30341 0.0299988 3.19859 0.0734168 3.12131 0.150695C3.04403 0.227973 3.00062 0.332781 3.00062 0.442069V4.31179H1.04891C0.7709 4.31238 0.504452 4.42308 0.307873 4.61965C0.111293 4.81623 0.000593817 5.08269 0 5.36069V13.4672C0.000593817 13.7452 0.111293 14.0117 0.307873 14.2083C0.504452 14.4049 0.7709 14.5155 1.04891 14.5161H4.69573V17.9554C4.69662 18.5057 4.91573 19.0331 5.30501 19.4221C5.69428 19.811 6.22192 20.0296 6.7722 20.03H14.4801C15.0304 20.0296 15.558 19.8109 15.9472 19.422C16.3364 19.0331 16.5554 18.5057 16.5562 17.9554V14.5161H19.2463C19.4463 14.5159 19.6381 14.4364 19.7795 14.2949C19.921 14.1535 20.0005 13.9617 20.0007 13.7617V7.15133C20.0001 6.95173 19.9204 6.76047 19.7792 6.61939C19.6379 6.47831 19.4467 6.39885 19.2471 6.39835ZM0.821513 13.4699V5.36331C0.821613 5.30287 0.8457 5.24493 0.888473 5.20223C0.931247 5.15953 0.989213 5.13555 1.04965 5.13555H9.16553C9.226 5.13555 9.284 5.15953 9.32673 5.20223C9.36953 5.24493 9.3936 5.30287 9.39367 5.36331V13.4699C9.3936 13.5303 9.36953 13.5882 9.32673 13.6309C9.284 13.6736 9.226 13.6976 9.16553 13.6976H1.04891C1.01888 13.6975 0.989173 13.6915 0.96148 13.6799C0.933793 13.6683 0.90866 13.6513 0.88754 13.63C0.866413 13.6087 0.849707 13.5834 0.83838 13.5555C0.827053 13.5277 0.82132 13.498 0.821513 13.468V13.4699ZM14.2606 2.96618H18.0315V6.39835H14.2606V2.96618ZM19.18 13.6957H13.1113V7.2184H19.18V13.6957Z" fill="#555555"/>
<path id="Vector_2" d="M17.5188 4.60144H16.6142V5.71345H17.5188V4.60144Z" fill="#555555"/>
<path id="Vector_3" d="M15.7618 4.60144H14.8572V5.71345H15.7618V4.60144Z" fill="#555555"/>
</g>
<defs>
<clipPath id="clip0_1_626">
<rect width="20" height="20" fill="white" transform="translate(0 0.0299988)"/>
</clipPath>
</defs>
</svg>
