<svg width="34" height="32" viewBox="0 0 34 32" fill="none" xmlns="http://www.w3.org/2000/svg">
<rect x="0.880005" y="0.5" width="32.09" height="31" rx="4.5" stroke="black"/>
<g clip-path="url(#clip0_1_703)">
<path d="M23.94 18.3338L24.233 20.9559C24.2525 21.1122 24.2085 21.2489 24.1011 21.3661C23.9937 21.4832 23.857 21.5418 23.691 21.5418H9.77495C9.60894 21.5418 9.47222 21.4832 9.3648 21.3661C9.25738 21.2489 9.21343 21.1122 9.23296 20.9559L9.52593 18.3338H23.94ZM23.1636 11.3026L23.8814 17.7918H9.58452L10.3023 11.3026C10.3218 11.1756 10.3804 11.0633 10.4781 10.9657C10.5757 10.8778 10.6978 10.8338 10.8443 10.8338H12.983V11.9032C12.983 12.1961 13.0855 12.45 13.2906 12.6649C13.5054 12.87 13.7593 12.9725 14.0523 12.9725C14.3453 12.9725 14.5992 12.87 14.814 12.6649C15.0191 12.45 15.1216 12.1961 15.1216 11.9032V10.8338H18.3443V11.9032C18.3443 12.1961 18.4468 12.45 18.6519 12.6649C18.8668 12.87 19.1207 12.9725 19.4136 12.9725C19.7066 12.9725 19.9605 12.87 20.1753 12.6649C20.3804 12.45 20.483 12.1961 20.483 11.9032V10.8338H22.6216C22.7681 10.8338 22.8902 10.8778 22.9878 10.9657C23.0855 11.0633 23.1441 11.1756 23.1636 11.3026ZM19.941 9.7645V11.9032C19.941 12.0497 19.8921 12.1766 19.7945 12.284C19.6871 12.3817 19.5601 12.4305 19.4136 12.4305C19.2671 12.4305 19.1402 12.3817 19.0328 12.284C18.9253 12.1766 18.8716 12.0497 18.8716 11.9032V9.7645C18.8716 9.16879 18.6617 8.66098 18.2418 8.24106C17.8316 7.82114 17.3287 7.61118 16.733 7.61118C16.1373 7.61118 15.6343 7.82114 15.2242 8.24106C14.8043 8.66098 14.5943 9.16879 14.5943 9.7645V11.9032C14.5943 12.0497 14.5406 12.1766 14.4332 12.284C14.3257 12.3817 14.1988 12.4305 14.0523 12.4305C13.9058 12.4305 13.7789 12.3817 13.6714 12.284C13.5738 12.1766 13.525 12.0497 13.525 11.9032V9.7645C13.525 8.87582 13.8375 8.11411 14.4625 7.47934C15.0875 6.85434 15.8443 6.54184 16.733 6.54184C17.6216 6.54184 18.3785 6.85434 19.0035 7.47934C19.6285 8.11411 19.941 8.87582 19.941 9.7645Z" fill="black"/>
</g>
<defs>
<clipPath id="clip0_1_703">
<rect width="15.75" height="15" fill="white" transform="matrix(1 0 0 -1 9.04999 21.41)"/>
</clipPath>
</defs>
</svg>
