<svg width="18" height="21" viewBox="0 0 18 21" fill="none" xmlns="http://www.w3.org/2000/svg">
<g id="may-tinh-bang.svg" clip-path="url(#clip0_1_585)">
<path id="Vector" d="M15.3474 0.470001H2.14718C1.75462 0.470501 1.37828 0.626204 1.10073 0.902953C0.823186 1.1797 0.667088 1.55489 0.666687 1.94623V18.9938C0.667088 19.3851 0.823186 19.7603 1.10073 20.0371C1.37828 20.3138 1.75462 20.4695 2.14718 20.47H15.3474C15.74 20.4695 16.1164 20.3138 16.3939 20.0371C16.6714 19.7603 16.8276 19.3851 16.828 18.9938V1.94623C16.8276 1.55489 16.6714 1.1797 16.3939 0.902953C16.1164 0.626204 15.74 0.470501 15.3474 0.470001ZM16.1466 18.9938C16.1464 19.205 16.0621 19.4075 15.9123 19.557C15.7625 19.7064 15.5594 19.7905 15.3474 19.7907H2.14718C1.93527 19.7905 1.73213 19.7064 1.58232 19.557C1.43251 19.4075 1.34827 19.205 1.34807 18.9938V1.94623C1.34827 1.73498 1.43251 1.53244 1.58232 1.38303C1.73213 1.23362 1.93527 1.14955 2.14718 1.14925H15.3474C15.5594 1.14955 15.7625 1.23362 15.9123 1.38303C16.0621 1.53244 16.1464 1.73498 16.1466 1.94623V18.9938Z" fill="#555555"/>
<path id="Vector_2" d="M2.0415 17.6379H15.453V2.9613H2.0415V17.6379ZM2.72288 3.64054H14.7716V16.9587H2.72288V3.64054Z" fill="#555555"/>
<path id="Vector_3" d="M9.37438 18.8918C9.51778 18.5468 9.35338 18.1512 9.00731 18.0083C8.66118 17.8653 8.26431 18.0292 8.12098 18.3743C7.97758 18.7193 8.14198 19.1149 8.48811 19.2578C8.83424 19.4007 9.23105 19.2369 9.37438 18.8918Z" fill="#555555"/>
<path id="Vector_4" d="M7.87973 2.39266H9.6154C9.70573 2.39266 9.7924 2.35688 9.85626 2.29318C9.9202 2.22949 9.95606 2.14311 9.95606 2.05304C9.95606 1.96296 9.9202 1.87658 9.85626 1.81288C9.7924 1.74919 9.70573 1.71341 9.6154 1.71341H7.87973C7.7894 1.71341 7.70273 1.74919 7.63886 1.81288C7.57493 1.87658 7.53906 1.96296 7.53906 2.05304C7.53906 2.14311 7.57493 2.22949 7.63886 2.29318C7.70273 2.35688 7.7894 2.39266 7.87973 2.39266Z" fill="#555555"/>
</g>
<defs>
<clipPath id="clip0_1_585">
<rect width="16.6667" height="20" fill="white" transform="translate(0.666687 0.470001)"/>
</clipPath>
</defs>
</svg>
