<svg width="31" height="39" viewBox="0 0 31 39" fill="none" xmlns="http://www.w3.org/2000/svg">
<g clip-path="url(#clip0_1_38)">
<path d="M22.314 30.699H19.4107C18.9863 30.699 18.6488 30.37 18.5289 29.8409L18.335 29.0148C18.335 29.0078 18.3323 28.9998 18.3295 28.9918C17.0389 29.1728 15.7317 29.1648 14.4438 28.9678L14.3478 29.7749C14.3011 30.303 13.9188 30.699 13.455 30.699H10.5535C10.1099 30.699 9.74675 30.339 9.66443 29.8199L9.10554 27.2996L9.04791 26.9595L9.00034 26.6955C8.97199 26.6665 8.90064 26.6085 8.83204 26.5525L8.56677 26.3314C6.76935 24.8032 5.62138 22.769 5.34148 20.6107V20.5987C5.18689 19.1935 5.411 17.6173 5.9516 16.2741C6.22453 15.6011 6.57728 14.9702 7.00077 14.3978C7.68302 13.4837 8.49789 12.6981 9.41288 12.0725L10.0898 11.6375C13.1824 9.79423 17.091 9.41118 20.5898 10.5993C22.0616 9.45319 23.6788 9.12714 25.4003 9.63321C25.5668 9.68222 25.9537 9.79723 26.0836 10.1773C26.2089 10.5433 26.0104 10.8684 25.8915 11.0624C25.6957 11.3864 25.554 11.7415 25.4158 12.0905C25.2667 12.4656 25.114 12.8526 24.8908 13.1937C25.6425 13.9053 26.2724 14.7573 26.7513 15.71C26.8501 15.906 26.9343 16.0891 27.0093 16.2511C27.3706 17.0362 27.4776 17.2732 28.3329 17.2732C28.6359 17.2737 28.9265 17.4057 29.1406 17.6403C29.3546 17.8753 29.4753 18.1934 29.4763 18.5254V22.3069C29.4753 22.639 29.3546 22.957 29.1406 23.191C28.9263 23.4252 28.6358 23.5569 28.3329 23.5571C26.9352 23.5571 26.7897 23.6651 25.6491 24.8262C25.4332 25.0453 25.2256 25.2863 25.006 25.5403C24.7216 25.8824 24.4206 26.2074 24.1041 26.5145C23.9687 26.6425 23.8672 26.7235 23.7995 26.7775L23.7666 26.8035C23.752 26.8685 23.73 26.9935 23.7062 27.1236V27.1316L23.2095 29.8079C23.1245 30.33 22.7613 30.695 22.3159 30.695L22.314 30.699ZM19.4592 29.6799H22.2756C22.2802 29.6669 22.2829 29.6539 22.2848 29.6409L22.2884 29.6169L22.7879 26.9305C22.8839 26.3845 22.9132 26.2194 23.2489 25.9534C23.3332 25.8876 23.4147 25.8175 23.4931 25.7434C23.7847 25.459 24.0625 25.1582 24.3255 24.8422C24.5459 24.5862 24.7746 24.3212 25.0124 24.0801C26.2976 22.772 26.6598 22.5389 28.3292 22.5389C28.385 22.5379 28.439 22.5139 28.4783 22.4709C28.5176 22.4279 28.5414 22.3689 28.5423 22.3079V18.5274C28.5423 18.4654 28.5195 18.4064 28.4801 18.3624C28.4408 18.3184 28.3859 18.2944 28.3292 18.2934C26.9004 18.2934 26.5647 17.5573 26.175 16.7082C26.1019 16.5471 26.0259 16.3811 25.9354 16.2041C25.4698 15.2798 24.8467 14.4616 24.0996 13.7938C23.591 13.3237 23.9312 12.8746 24.0428 12.7276L24.0703 12.6906C24.2679 12.4276 24.4042 12.0835 24.5624 11.6845C24.7024 11.3064 24.8688 10.9414 25.06 10.5903C23.591 10.1893 22.2098 10.5183 20.9538 11.5685L20.759 11.7315L20.5258 11.6475C17.2081 10.4483 13.4706 10.7794 10.5279 12.5336C10.3066 12.6636 10.1062 12.7916 9.91323 12.9297L9.90957 12.9327C9.07992 13.4987 8.34083 14.2098 7.72157 15.0379C7.34928 15.54 7.03919 16.0941 6.79954 16.6852C6.3248 17.8643 6.12814 19.2435 6.26168 20.4717C6.51049 22.3649 7.53222 24.1602 9.13755 25.5263L9.38727 25.7344C9.80804 26.0774 9.86749 26.1874 9.96354 26.7815L10.0148 27.0945L10.5746 29.6209L10.5773 29.6419C10.5791 29.6549 10.5819 29.6679 10.5865 29.6809H13.4193V29.6529L13.5318 28.7078L13.5428 28.6158C13.5657 28.4117 13.594 28.1797 13.788 28.0187C13.9819 27.8577 14.1932 27.8957 14.3798 27.9277L14.4603 27.9417C15.7273 28.1467 17.0143 28.1564 18.2838 27.9707L18.3432 27.9607C18.5399 27.9297 18.7091 27.9037 18.8884 28.0177C19.1116 28.1567 19.1564 28.3927 19.1894 28.5667C19.2003 28.6238 19.2131 28.6858 19.2305 28.7638L19.4244 29.5939C19.4327 29.6229 19.4437 29.6519 19.4574 29.6789L19.4592 29.6799Z" fill="#0A0A0A"/>
<path fill-rule="evenodd" clip-rule="evenodd" d="M23.848 17.3222C23.6614 17.3222 23.4821 17.2402 23.3495 17.0962C23.2168 16.9522 23.1418 16.7552 23.1409 16.5511C23.1404 16.4494 23.1584 16.3486 23.1937 16.2545C23.2291 16.1604 23.2811 16.0749 23.3469 16.0029C23.4126 15.931 23.4908 15.8739 23.5768 15.8352C23.6628 15.7964 23.755 15.7766 23.848 15.777C23.9407 15.7773 24.0325 15.7976 24.1181 15.8367C24.2036 15.8758 24.2812 15.933 24.3465 16.0051C24.4782 16.1501 24.5523 16.3471 24.5523 16.5521C24.5524 16.6534 24.5343 16.7536 24.499 16.8471C24.4636 16.9407 24.4118 17.0257 24.3464 17.0973C24.2809 17.1689 24.2033 17.2258 24.1177 17.2645C24.0322 17.3033 23.9406 17.3232 23.848 17.3232V17.3222ZM16.4123 6.67181V6.61781C16.4784 6.60558 16.5435 6.58786 16.6071 6.5648C16.7315 6.51632 16.8477 6.44569 16.951 6.35577C17.0462 6.26676 17.1258 6.15775 17.1843 6.03573C17.2397 5.90824 17.2685 5.76884 17.2684 5.62768C17.2732 5.48818 17.2431 5.3499 17.1815 5.22762C17.1223 5.11686 17.0429 5.02054 16.9483 4.94458C16.8486 4.86649 16.7397 4.80358 16.6245 4.75756L16.2522 4.61254L16.0363 4.52853C15.9777 4.50701 15.9217 4.47743 15.8698 4.44052C15.8287 4.41351 15.793 4.37751 15.7665 4.3345C15.74 4.2915 15.7326 4.24549 15.7354 4.19648C15.7381 4.14748 15.7473 4.09647 15.7701 4.05246C15.7943 4.01212 15.8265 3.97827 15.8644 3.95345C15.9102 3.92234 15.9606 3.90033 16.0135 3.88844C16.0729 3.87644 16.1333 3.87044 16.1946 3.86944C16.292 3.86533 16.3885 3.8917 16.4726 3.94545C16.5568 3.99946 16.6355 4.07047 16.7059 4.14748C16.7343 4.17748 16.769 4.19748 16.8065 4.20649C16.844 4.21549 16.8843 4.21349 16.9209 4.20048C16.9767 4.18648 17.0279 4.15448 17.0672 4.10947C17.1044 4.06644 17.1287 4.012 17.1367 3.95345C17.144 3.88744 17.1331 3.82143 17.1056 3.76243L17.102 3.75843C17.0606 3.67294 17.0055 3.59636 16.9391 3.5324C16.8691 3.46661 16.7905 3.41267 16.7059 3.37237C16.6216 3.3299 16.5328 3.29899 16.4415 3.28036C16.4315 3.27736 16.4205 3.27736 16.4104 3.27336V3.13234C16.4096 3.0512 16.3797 2.97364 16.3272 2.91631C16.2742 2.85931 16.2037 2.8273 16.1296 2.8273C16.0555 2.8273 15.9842 2.85831 15.9311 2.91631C15.8781 2.97432 15.8479 3.05133 15.8479 3.13234V3.29236C15.8255 3.29682 15.8035 3.30318 15.782 3.31137C15.6617 3.35211 15.5487 3.41539 15.4482 3.49839C15.3484 3.57863 15.2654 3.68127 15.2048 3.79943C15.144 3.92757 15.1129 4.07011 15.1143 4.21449C15.1109 4.3478 15.1409 4.47958 15.2012 4.59554C15.2608 4.7014 15.3384 4.79375 15.4299 4.86757C15.5253 4.94629 15.6295 5.01148 15.74 5.0616L16.0839 5.20362H16.0875L16.3135 5.28363C16.3793 5.30558 16.4421 5.3372 16.5001 5.37764C16.5487 5.40731 16.5914 5.44745 16.6254 5.49566C16.6519 5.54066 16.6656 5.59367 16.6638 5.64768C16.662 5.70169 16.6528 5.74869 16.6291 5.7927C16.6053 5.8367 16.5678 5.87971 16.5257 5.91071C16.4772 5.94472 16.4251 5.97172 16.3702 5.99072C16.3153 6.00973 16.2485 6.01773 16.1863 6.01773C16.0679 6.02279 15.9499 5.99815 15.8415 5.94572C15.7489 5.8892 15.6721 5.80623 15.6192 5.70569L15.6165 5.70169L15.6128 5.69868C15.5617 5.62075 15.4856 5.56681 15.3997 5.54766C15.3283 5.53466 15.2552 5.54967 15.193 5.58967C15.1619 5.60799 15.1345 5.63291 15.1123 5.66297C15.0902 5.69302 15.0737 5.7276 15.064 5.76469C15.0521 5.8097 15.0493 5.85571 15.0548 5.90171C15.0603 5.94772 15.0759 5.99172 15.0987 6.03073C15.1464 6.13531 15.2126 6.22847 15.2936 6.30477C15.3736 6.38086 15.4625 6.44509 15.5579 6.49579C15.6527 6.54257 15.7517 6.57811 15.8534 6.60181V6.67081C15.8534 6.71182 15.8607 6.75183 15.8744 6.78883C15.8881 6.82584 15.9092 6.86084 15.9357 6.88884C15.9622 6.91685 15.9933 6.93985 16.0272 6.95585C16.0614 6.97141 16.0981 6.97923 16.1351 6.97886C16.2097 6.97833 16.2811 6.94571 16.3338 6.88805C16.3865 6.8304 16.4164 6.75235 16.4168 6.67081H16.4141L16.4123 6.67181Z" fill="#0A0A0A"/>
<path d="M2.49397 20.1867C2.38502 20.1866 2.27952 20.1448 2.19577 20.0686C2.13057 20.0089 2.08154 19.9309 2.05397 19.8429C2.0264 19.755 2.02135 19.6604 2.03936 19.5696C2.05231 19.5043 2.07687 19.4425 2.11162 19.3876C2.14652 19.3326 2.19097 19.2857 2.24242 19.2495C2.2939 19.2133 2.3514 19.1885 2.41165 19.1765C2.73645 19.1099 3.04435 18.9676 3.31447 18.7595C3.19343 18.5756 3.0996 18.3721 3.0364 18.1564C2.94012 17.8466 2.92242 17.5141 2.98517 17.1943C3.02115 17.0142 3.08927 16.8437 3.18565 16.6925C3.28203 16.5413 3.40476 16.4124 3.54681 16.3131C3.7014 16.2071 3.88068 16.1501 4.06362 16.1481C4.20976 16.1531 4.35298 16.1941 4.48256 16.2681C4.61224 16.3422 4.72508 16.4471 4.81277 16.5752C5.18506 17.0962 5.18781 17.7583 4.82009 18.4434L4.71947 18.6184C5.01896 18.6962 5.33188 18.6866 5.62687 18.5904C5.74487 18.5524 5.87202 18.5674 5.98087 18.6325C6.06127 18.6811 6.12675 18.7546 6.16909 18.8437C6.21144 18.9329 6.22877 19.0337 6.2189 19.1336C6.20903 19.2335 6.17241 19.3279 6.11363 19.4051C6.05485 19.4823 5.97652 19.5389 5.88848 19.5676C5.34667 19.747 4.76616 19.7288 4.23467 19.5156C4.17054 19.4894 4.10765 19.4597 4.04624 19.4266C3.62238 19.8078 3.11745 20.0662 2.57812 20.1777C2.55068 20.1827 2.52324 20.1857 2.4958 20.1857L2.49397 20.1867ZM4.04899 17.1713L4.03161 17.1823C3.95809 17.24 3.9074 17.3262 3.88983 17.4233C3.86513 17.5633 3.87611 17.7073 3.92001 17.8413C3.93605 17.8961 3.95561 17.9496 3.97855 18.0014L4.01972 17.9274C4.2676 17.4673 4.12674 17.2713 4.08192 17.2073C4.07277 17.1933 4.06179 17.1813 4.04899 17.1713ZM12.8568 13.5118C12.7802 13.5116 12.7048 13.4907 12.6373 13.4511C12.5698 13.4115 12.5123 13.3543 12.4698 13.2846C12.4273 13.2149 12.4011 13.1349 12.3937 13.0515C12.3862 12.9682 12.3976 12.8841 12.4269 12.8067C12.4742 12.6823 12.5646 12.5834 12.6784 12.5316C12.8092 12.4746 15.9375 11.0914 19.6806 12.2866C19.7539 12.3104 19.8208 12.3535 19.8753 12.4122C19.9299 12.4709 19.9703 12.5434 19.9932 12.6232C20.0161 12.7031 20.0206 12.7878 20.0065 12.8701C19.9923 12.9523 19.9599 13.0294 19.912 13.0947C19.8736 13.1467 19.8269 13.1907 19.773 13.2227C19.6648 13.2877 19.5375 13.3032 19.419 13.2657C15.9997 12.1736 13.0608 13.4618 13.0315 13.4748C12.9757 13.4998 12.9162 13.5128 12.8559 13.5128L12.8568 13.5118ZM16.2037 9.18219C15.6945 9.18217 15.1903 9.07226 14.7201 8.85876C14.2498 8.64526 13.8227 8.33237 13.4632 7.93802C12.736 7.14115 12.3275 6.06137 12.3275 4.93562C12.3275 3.80987 12.736 2.73009 13.4632 1.93322C13.8227 1.53904 14.2497 1.22629 14.7199 1.0129C15.1901 0.79951 15.6942 0.689667 16.2033 0.689667C16.7124 0.689667 17.2164 0.79951 17.6866 1.0129C18.1568 1.22629 18.5839 1.53904 18.9433 1.93322C19.6706 2.73009 20.079 3.80987 20.079 4.93562C20.079 6.06137 19.6706 7.14115 18.9433 7.93802C18.5838 8.33219 18.1566 8.64489 17.6864 8.85822C17.2161 9.07155 16.712 9.1813 16.2028 9.18119L16.2037 9.18219ZM16.2037 1.71419C15.4226 1.71419 14.6734 2.05423 14.1209 2.65931C13.5682 3.26494 13.2578 4.08556 13.2578 4.94112C13.2578 5.79668 13.5682 6.6173 14.1209 7.22292C14.6734 7.828 15.4226 8.16805 16.2037 8.16805C16.9849 8.16805 17.734 7.828 18.2865 7.22292C18.8392 6.6173 19.1497 5.79668 19.1497 4.94112C19.1497 4.08556 18.8392 3.26494 18.2865 2.65931C18.0133 2.35998 17.6888 2.12243 17.3316 1.96022C16.9739 1.7982 16.5907 1.71419 16.2037 1.71419Z" fill="#0A0A0A"/>
</g>
<defs>
<clipPath id="clip0_1_38">
<rect width="30" height="37.38" fill="white" transform="translate(0.750031 0.690002)"/>
</clipPath>
</defs>
</svg>
