<svg width="27" height="38" viewBox="0 0 27 38" fill="none" xmlns="http://www.w3.org/2000/svg">
<g clip-path="url(#clip0_1_42)">
<path d="M20.115 6.69067H0.750031V3.70679C0.750681 2.99902 1.0079 2.32042 1.46524 1.81987C1.92259 1.31933 2.54269 1.03772 3.18955 1.03683H17.6736C18.3206 1.03772 18.9408 1.31931 19.3982 1.81983C19.8557 2.32036 20.113 2.99896 20.1139 3.70679L20.115 6.69067ZM1.85583 5.48073H19.0093V3.70679C19.0087 3.31951 18.8678 2.94826 18.6174 2.67453C18.3671 2.4008 18.0276 2.24697 17.6736 2.24679H3.18831C2.83463 2.24732 2.49558 2.40134 2.24555 2.67504C1.99552 2.94875 1.85492 3.31981 1.8546 3.70679L1.85583 5.48073Z" fill="#0A0A0A"/>
<path d="M20.115 30.0025H0.750031V5.48074H20.115V8.64007C20.115 8.80052 20.0568 8.9544 19.9531 9.06784C19.8494 9.1813 19.7088 9.24504 19.5621 9.24504C19.4155 9.24504 19.2748 9.1813 19.1711 9.06784C19.0675 8.9544 19.0093 8.80052 19.0093 8.64007V6.6907H1.85583V28.7925H19.0093V26.5938C19.0093 26.4333 19.0675 26.2794 19.1711 26.166C19.2748 26.0525 19.4155 25.9888 19.5621 25.9888C19.7088 25.9888 19.8494 26.0525 19.9531 26.166C20.0568 26.2794 20.115 26.4333 20.115 26.5938V30.0025Z" fill="#0A0A0A"/>
<path d="M11.736 4.42007H9.12813C8.98149 4.42007 8.84086 4.35632 8.73717 4.24287C8.63349 4.12942 8.57523 3.97553 8.57523 3.81508C8.57523 3.65464 8.63349 3.50077 8.73717 3.38731C8.84086 3.27385 8.98149 3.21011 9.12813 3.21011H11.736C11.8826 3.21011 12.0232 3.27385 12.127 3.38731C12.2306 3.50077 12.2889 3.65464 12.2889 3.81508C12.2889 3.97553 12.2306 4.12942 12.127 4.24287C12.0232 4.35632 11.8826 4.42007 11.736 4.42007Z" fill="#0A0A0A"/>
<path d="M17.6736 36.6632H3.18831C2.54216 36.6621 1.92272 36.3809 1.46569 35.8811C1.00867 35.3812 0.75133 34.7036 0.750031 33.9965V28.7925H20.115V33.9965C20.1135 34.7041 19.8557 35.3822 19.3981 35.882C18.9404 36.382 18.3203 36.6628 17.6736 36.6632ZM1.8546 30.0024V33.9965C1.85508 34.3834 1.99577 34.7543 2.24579 35.0279C2.4958 35.3014 2.83474 35.4553 3.18831 35.4559H17.6736C18.0276 35.4559 18.367 35.3022 18.6173 35.0286C18.8678 34.755 19.0087 34.3838 19.0093 33.9965V30.0024H1.8546Z" fill="#0A0A0A"/>
<path d="M10.4327 34.7293C9.93594 34.7286 9.45972 34.5123 9.10847 34.128C8.75722 33.7436 8.55961 33.2226 8.55896 32.6791C8.55945 32.1354 8.75699 31.6142 9.10826 31.2297C9.45952 30.8452 9.93583 30.6289 10.4327 30.6282C10.9295 30.6289 11.4058 30.8452 11.7571 31.2297C12.1083 31.6142 12.3059 32.1354 12.3064 32.6791C12.3057 33.2226 12.1081 33.7436 11.7569 34.128C11.4056 34.5123 10.9294 34.7286 10.4327 34.7293ZM10.4327 31.8388C10.229 31.839 10.0336 31.9276 9.88965 32.0853C9.74565 32.243 9.66476 32.4568 9.66476 32.6797C9.66492 32.9025 9.74588 33.1161 9.88986 33.2737C10.0338 33.4312 10.2291 33.5198 10.4327 33.52C10.6362 33.5196 10.8314 33.4309 10.9753 33.2735C11.1193 33.116 11.2003 32.9025 11.2006 32.6797C11.2006 32.4568 11.1197 32.2429 10.9758 32.0851C10.8318 31.9274 10.6365 31.8391 10.4327 31.8388Z" fill="#0A0A0A"/>
<path d="M13.882 18.8816C13.7441 18.8814 13.6113 18.8248 13.5095 18.7229C13.4078 18.621 13.3445 18.4813 13.3321 18.331C13.2478 17.3253 13.367 16.3115 13.6812 15.3618C13.9955 14.4123 14.4972 13.55 15.1506 12.8365C16.332 11.5464 17.9331 10.8219 19.6023 10.8219C21.2715 10.8219 22.8725 11.5464 24.054 12.8365C24.1054 12.8927 24.1461 12.9594 24.174 13.0328C24.2017 13.1062 24.2161 13.1849 24.2161 13.2644C24.2161 13.3438 24.2017 13.4226 24.174 13.496C24.1461 13.5693 24.1054 13.6361 24.054 13.6923C23.9504 13.8055 23.8099 13.8692 23.6634 13.8692C23.5168 13.8692 23.3763 13.8055 23.2726 13.6923C22.2985 12.6288 20.9787 12.0315 19.6026 12.0315C18.2266 12.0315 16.9068 12.6288 15.9326 13.6923C15.3939 14.2803 14.9803 14.9912 14.7211 15.7741C14.4621 16.5571 14.3638 17.393 14.4336 18.2221C14.4401 18.3014 14.4323 18.381 14.4106 18.4569C14.389 18.5327 14.3539 18.6031 14.3073 18.6642C14.2607 18.7252 14.2036 18.7755 14.1394 18.8124C14.075 18.8492 14.0046 18.8719 13.9324 18.8789C13.9156 18.8808 13.8988 18.8817 13.882 18.8816Z" fill="#0A0A0A"/>
<path d="M21.9962 14.3194C21.8566 14.3197 21.7221 14.2625 21.6195 14.1588C21.5169 14.0553 21.4539 13.913 21.4433 13.7608C21.4377 13.6816 21.4466 13.6019 21.4691 13.5263C21.4918 13.4508 21.5277 13.381 21.575 13.3207C21.6223 13.2603 21.68 13.2108 21.7448 13.1749C21.8096 13.139 21.8801 13.1175 21.9526 13.1114L23.3508 12.9952L23.1892 11.1324C23.1754 10.9728 23.22 10.8137 23.3133 10.69C23.4067 10.5664 23.541 10.4883 23.6868 10.473C23.8327 10.4579 23.9781 10.5067 24.0911 10.6088C24.2042 10.7109 24.2755 10.8579 24.2895 11.0175L24.5586 14.1095L22.0368 14.32C22.0244 14.3193 22.0103 14.3194 21.9962 14.3194Z" fill="#0A0A0A"/>
<path d="M19.5216 24.2847C18.6945 24.2873 17.8751 24.1105 17.111 23.7643C16.3468 23.4181 15.6529 22.9096 15.0695 22.2681C14.966 22.1547 14.9078 22.0009 14.9078 21.8406C14.9078 21.6803 14.966 21.5265 15.0695 21.4131C15.1209 21.3569 15.1818 21.3123 15.2489 21.2819C15.316 21.2515 15.3879 21.2358 15.4605 21.2358C15.5332 21.2358 15.605 21.2515 15.6722 21.2819C15.7392 21.3123 15.8002 21.3569 15.8516 21.4131C16.3326 21.9418 16.9046 22.361 17.5344 22.6465C18.1644 22.9318 18.8397 23.0779 19.5216 23.0761C20.2033 23.0779 20.8788 22.9318 21.5086 22.6465C22.1386 22.361 22.7106 21.9418 23.1916 21.4131C23.7225 20.8325 24.1319 20.1327 24.3916 19.3621C24.6513 18.5915 24.755 17.7684 24.6955 16.9497C24.6897 16.8705 24.6984 16.7908 24.7208 16.7152C24.7433 16.6396 24.7791 16.5696 24.8262 16.5091C24.8735 16.4487 24.9311 16.399 24.9958 16.3631C25.0606 16.327 25.1311 16.3052 25.2036 16.299C25.2759 16.2928 25.3487 16.3021 25.4178 16.3267C25.487 16.3513 25.5509 16.3905 25.6061 16.4421C25.6614 16.4938 25.7068 16.5567 25.7397 16.6276C25.7726 16.6984 25.7926 16.7756 25.7982 16.8549C25.8701 17.848 25.7441 18.8461 25.4291 19.7807C25.1142 20.7153 24.6176 21.5639 23.9737 22.2681C23.3903 22.9096 22.6964 23.4181 21.9322 23.7643C21.168 24.1105 20.3487 24.2873 19.5216 24.2847Z" fill="#0A0A0A"/>
<path d="M15.3822 24.6336C15.2447 24.6335 15.1122 24.5772 15.0106 24.4759C14.9089 24.3746 14.8454 24.2355 14.8324 24.0858L14.5633 20.989L17.4255 20.7872C17.5718 20.7768 17.7159 20.8303 17.8262 20.936C17.9365 21.0418 18.0037 21.1911 18.0134 21.3513C18.0182 21.4305 18.0086 21.5101 17.9852 21.5854C17.9618 21.6607 17.9252 21.7301 17.8772 21.7899C17.8293 21.8496 17.771 21.8985 17.7059 21.9336C17.6407 21.9687 17.5699 21.9894 17.4974 21.9945L15.7723 22.1175L15.9333 23.9735C15.9471 24.1331 15.9025 24.2923 15.8092 24.4159C15.7159 24.5395 15.5815 24.6177 15.4357 24.6329C15.4178 24.6342 15.4001 24.6344 15.3822 24.6336Z" fill="#0A0A0A"/>
</g>
<defs>
<clipPath id="clip0_1_42">
<rect width="26" height="36.38" fill="white" transform="translate(0.750031 0.660004)"/>
</clipPath>
</defs>
</svg>
