<svg width="16" height="21" viewBox="0 0 16 21" fill="none" xmlns="http://www.w3.org/2000/svg">
<g id="thu-cu-doi-moi-1.svg" clip-path="url(#clip0_1_635)">
<path id="Vector" d="M11.9169 3.59394H0V1.91885C0.000400154 1.52152 0.158691 1.14056 0.440131 0.859566C0.721573 0.578571 1.10317 0.420482 1.50124 0.419983H10.4145C10.8127 0.420482 11.1943 0.578558 11.4758 0.859543C11.7573 1.14053 11.9157 1.52148 11.9162 1.91885L11.9169 3.59394ZM0.680493 2.9147H11.2365V1.91885C11.2361 1.70144 11.1494 1.49302 10.9953 1.33936C10.8413 1.18569 10.6323 1.09933 10.4145 1.09923H1.50048C1.28283 1.09953 1.07419 1.18599 0.92032 1.33964C0.766453 1.4933 0.679933 1.7016 0.679733 1.91885L0.680493 2.9147Z" fill="#555555"/>
<path id="Vector_2" d="M11.9169 16.6808H0V2.9147H11.9169V4.68829C11.9169 4.77836 11.8811 4.86475 11.8173 4.92844C11.7535 4.99213 11.6669 5.02791 11.5767 5.02791C11.4865 5.02791 11.3999 4.99213 11.3361 4.92844C11.2723 4.86475 11.2365 4.77836 11.2365 4.68829V3.59395H0.680493V16.0015H11.2365V14.7672C11.2365 14.6771 11.2723 14.5907 11.3361 14.527C11.3999 14.4633 11.4865 14.4276 11.5767 14.4276C11.6669 14.4276 11.7535 14.4633 11.8173 14.527C11.8811 14.5907 11.9169 14.6771 11.9169 14.7672V16.6808Z" fill="#555555"/>
<path id="Vector_3" d="M6.76058 2.31929H5.15574C5.0655 2.31929 4.97896 2.28351 4.91515 2.21982C4.85134 2.15613 4.81549 2.06974 4.81549 1.97967C4.81549 1.88959 4.85134 1.80321 4.91515 1.73952C4.97896 1.67583 5.0655 1.64005 5.15574 1.64005H6.76058C6.85078 1.64005 6.93731 1.67583 7.00118 1.73952C7.06498 1.80321 7.10084 1.88959 7.10084 1.97967C7.10084 2.06974 7.06498 2.15613 7.00118 2.21982C6.93731 2.28351 6.85078 2.31929 6.76058 2.31929Z" fill="#555555"/>
<path id="Vector_4" d="M10.4145 20.42H1.50048C1.10285 20.4194 0.721653 20.2615 0.440407 19.9809C0.159163 19.7003 0.000799827 19.3199 0 18.923V16.0015H11.9169V18.923C11.916 19.3202 11.7573 19.7009 11.4757 19.9815C11.1941 20.2621 10.8125 20.4198 10.4145 20.42ZM0.679733 16.6807V18.923C0.680033 19.1402 0.766607 19.3484 0.920467 19.502C1.07432 19.6555 1.2829 19.7419 1.50048 19.7423H10.4145C10.6323 19.7423 10.8412 19.656 10.9953 19.5024C11.1494 19.3488 11.2361 19.1404 11.2365 18.923V16.6807H0.679733Z" fill="#555555"/>
<path id="Vector_5" d="M5.95853 19.3343C5.65285 19.3339 5.35979 19.2125 5.14364 18.9968C4.92749 18.781 4.80588 18.4885 4.80548 18.1834C4.80578 17.8782 4.92735 17.5856 5.14351 17.3697C5.35967 17.1538 5.65279 17.0324 5.95853 17.032C6.26429 17.0324 6.5574 17.1538 6.77358 17.3697C6.98971 17.5856 7.11131 17.8782 7.11158 18.1834C7.11118 18.4885 6.98958 18.781 6.77345 18.9968C6.55728 19.2125 6.26422 19.3339 5.95853 19.3343ZM5.95853 17.7116C5.83317 17.7118 5.71297 17.7615 5.62437 17.85C5.53575 17.9386 5.48597 18.0586 5.48597 18.1837C5.48607 18.3088 5.53589 18.4287 5.62449 18.5172C5.71309 18.6056 5.83323 18.6553 5.95853 18.6554C6.08381 18.6552 6.20389 18.6054 6.29247 18.517C6.38105 18.4286 6.4309 18.3088 6.4311 18.1837C6.4311 18.0586 6.38135 17.9385 6.29275 17.8499C6.20415 17.7614 6.08394 17.7118 5.95853 17.7116Z" fill="#555555"/>
<path id="Vector_6" d="M8.08119 10.4377C7.99632 10.4376 7.91458 10.4058 7.85198 10.3486C7.78938 10.2914 7.75045 10.213 7.74278 10.1286C7.69092 9.56405 7.76425 8.99491 7.95765 8.46178C8.15105 7.92871 8.45978 7.44465 8.86185 7.04413C9.58892 6.31989 10.5742 5.91315 11.6014 5.91315C12.6286 5.91315 13.6138 6.31989 14.3409 7.04413C14.3725 7.07566 14.3976 7.11311 14.4147 7.15431C14.4318 7.19551 14.4407 7.23971 14.4407 7.28431C14.4407 7.32891 14.4318 7.37311 14.4147 7.41431C14.3976 7.45551 14.3725 7.49298 14.3409 7.52451C14.2771 7.58811 14.1907 7.62385 14.1005 7.62385C14.0103 7.62385 13.9239 7.58811 13.8601 7.52451C13.2606 6.92749 12.4484 6.5922 11.6016 6.5922C10.7548 6.5922 9.94258 6.92749 9.34312 7.52451C9.01158 7.85465 8.75705 8.25371 8.59759 8.69325C8.43819 9.13278 8.37772 9.60205 8.42065 10.0675C8.42465 10.112 8.41985 10.1567 8.40652 10.1993C8.39319 10.2418 8.37158 10.2814 8.34292 10.3156C8.31425 10.3499 8.27912 10.3782 8.23958 10.3988C8.19998 10.4195 8.15665 10.4322 8.11218 10.4362C8.10185 10.4372 8.09152 10.4378 8.08119 10.4377Z" fill="#555555"/>
<path id="Vector_7" d="M13.0746 7.87659C12.9887 7.87679 12.9059 7.84466 12.8428 7.78646C12.7796 7.72833 12.7409 7.64846 12.7344 7.56299C12.7309 7.51853 12.7364 7.47379 12.7502 7.43139C12.7642 7.38899 12.7863 7.34979 12.8154 7.31593C12.8445 7.28206 12.88 7.25426 12.9199 7.23413C12.9598 7.21393 13.0032 7.20186 13.0478 7.19846L13.9082 7.13319L13.8088 6.0875C13.8002 5.99789 13.8277 5.90856 13.8851 5.83915C13.9426 5.76973 14.0252 5.72591 14.115 5.71731C14.2048 5.7088 14.2942 5.73621 14.3638 5.79353C14.4334 5.85084 14.4772 5.93337 14.4858 6.02297L14.6514 7.75879L13.0996 7.87693C13.092 7.87653 13.0833 7.87659 13.0746 7.87659Z" fill="#555555"/>
<path id="Vector_8" d="M11.5517 13.4709C11.0427 13.4724 10.5385 13.3731 10.0683 13.1788C9.598 12.9844 9.171 12.699 8.812 12.3388C8.74826 12.2752 8.71246 12.1888 8.71246 12.0988C8.71246 12.0088 8.74826 11.9225 8.812 11.8588C8.8436 11.8273 8.88106 11.8022 8.9224 11.7852C8.96366 11.7681 9.00793 11.7593 9.0526 11.7593C9.09733 11.7593 9.14153 11.7681 9.18286 11.7852C9.22413 11.8022 9.26166 11.8273 9.29326 11.8588C9.58926 12.1556 9.94126 12.391 10.3289 12.5512C10.7165 12.7114 11.1321 12.7934 11.5517 12.7924C11.9713 12.7934 12.3869 12.7114 12.7745 12.5512C13.1622 12.391 13.5142 12.1556 13.8102 11.8588C14.1369 11.5329 14.3889 11.14 14.5487 10.7074C14.7085 10.2748 14.7723 9.81278 14.7357 9.35318C14.7321 9.30871 14.7375 9.26398 14.7513 9.22151C14.7651 9.17911 14.7871 9.13978 14.8161 9.10585C14.8452 9.07191 14.8807 9.04405 14.9205 9.02385C14.9603 9.00358 15.0037 8.99138 15.0483 8.98791C15.0929 8.98438 15.1377 8.98965 15.1802 9.00345C15.2227 9.01725 15.2621 9.03925 15.2961 9.06825C15.3301 9.09725 15.358 9.13258 15.3783 9.17238C15.3985 9.21211 15.4108 9.25545 15.4143 9.29998C15.4585 9.85745 15.381 10.4178 15.1871 10.9424C14.9933 11.4671 14.6877 11.9435 14.2915 12.3388C13.9325 12.699 13.5055 12.9844 13.0352 13.1788C12.5649 13.3731 12.0607 13.4724 11.5517 13.4709Z" fill="#555555"/>
<path id="Vector_9" d="M9.00442 13.6668C8.91982 13.6667 8.83829 13.6351 8.77575 13.5783C8.71315 13.5214 8.67409 13.4433 8.66609 13.3593L8.50049 11.6208L10.2618 11.5075C10.3519 11.5017 10.4406 11.5317 10.5084 11.5911C10.5763 11.6505 10.6177 11.7343 10.6236 11.8242C10.6266 11.8687 10.6207 11.9133 10.6063 11.9556C10.5919 11.9979 10.5694 12.0369 10.5398 12.0704C10.5104 12.1039 10.4745 12.1314 10.4344 12.1511C10.3943 12.1708 10.3507 12.1824 10.3061 12.1853L9.24449 12.2543L9.34355 13.2963C9.35209 13.3859 9.32462 13.4752 9.26722 13.5446C9.20975 13.614 9.12709 13.6579 9.03735 13.6664C9.02635 13.6671 9.01542 13.6673 9.00442 13.6668Z" fill="#555555"/>
</g>
<defs>
<clipPath id="clip0_1_635">
<rect width="16" height="20" fill="white" transform="translate(0 0.419983)"/>
</clipPath>
</defs>
</svg>
