<svg width="20" height="21" viewBox="0 0 20 21" fill="none" xmlns="http://www.w3.org/2000/svg">
<g id="tin-cong-nghe.svg" clip-path="url(#clip0_1_664)">
<g id="Clip path group">
<mask id="mask0_1_664" style="mask-type:luminance" maskUnits="userSpaceOnUse" x="0" y="0" width="20" height="21">
<g id="clip0_1_2">
<path id="Vector" d="M20 0.589966H0V20.59H20V0.589966Z" fill="white"/>
</g>
</mask>
<g mask="url(#mask0_1_664)">
<g id="Group">
<path id="Vector_2" d="M5.38407 2.64071C5.32312 2.78383 5.28249 5.53889 5.28249 9.9219L5.17074 17.23C4.57138 18.6433 2.57013 19.0547 1.38158 18.0082C0.711103 17.4178 0.711103 17.4626 0.711103 12.9185C0.711103 9.33154 0.690788 8.77699 0.548566 8.59808C0.426662 8.43705 0.355552 8.41917 0.193014 8.49075C0.0101587 8.5802 0 8.72329 0 12.7843C0 16.8543 0.0101586 16.9974 0.213331 17.4894C0.487614 18.1424 1.07681 18.6969 1.75744 18.9653L2.28569 19.18H10.0062H17.7268L18.2652 18.9653C18.9662 18.688 19.6265 18.044 19.8499 17.4178C20.0023 16.9884 20.0125 16.255 19.9922 9.69832L19.9617 2.45287L12.7186 2.42603L5.48566 2.40814L5.38407 2.64071ZM19.3014 10.0472V17.06L19.017 17.5341C18.8138 17.883 18.6004 18.0887 18.2347 18.2855L17.7471 18.5538L11.3573 18.5807L4.97773 18.6075L5.33328 18.196C6.01391 17.4089 5.99359 17.6235 5.99359 9.94875V3.03429H12.6475H19.3014V10.0472ZM7.40564 4.19714L7.16182 4.37604L7.40564 4.55494C7.558 4.67122 7.79164 4.73384 8.08624 4.73384H8.53327V6.1382C8.53327 7.52469 8.61448 7.93614 8.89897 8.01663C8.97006 8.03457 9.092 7.98984 9.18339 7.90929C9.31546 7.78408 9.34594 7.52469 9.34594 6.24554V4.73384H9.8437C10.1891 4.73384 10.4126 4.68017 10.5752 4.55494L10.8189 4.37604L10.5752 4.19714C10.3618 4.03613 10.1891 4.01824 8.99036 4.01824C7.79164 4.01824 7.61897 4.03613 7.40564 4.19714ZM11.7027 4.12558C11.6113 4.20608 11.5808 4.74278 11.5808 5.99508C11.5808 7.47996 11.6012 7.78408 11.7434 7.90038C11.8247 7.98087 11.9364 8.04348 11.9872 8.04348C12.038 8.04348 12.1497 7.98087 12.231 7.90038C12.363 7.78408 12.3935 7.48887 12.3935 6.06664C12.3935 5.0648 12.3529 4.29554 12.2919 4.1882C12.1701 4.00035 11.8856 3.96457 11.7027 4.12558ZM13.6328 4.12558C13.5415 4.20608 13.511 4.74278 13.511 5.99508C13.511 7.88245 13.5618 8.0882 14.0189 7.98087C14.283 7.91826 14.3236 7.7662 14.3541 6.44233L14.3745 5.33315L15.4411 6.56756C16.7922 8.13293 17.1072 8.26711 17.2798 7.35475C17.3916 6.73754 17.3916 4.51916 17.2696 4.25081C17.1681 4.00035 16.8633 3.93774 16.6805 4.13452C16.6093 4.20608 16.5484 4.75173 16.5382 5.45838L16.5078 6.65699L15.5732 5.58361C15.0652 4.99325 14.537 4.42077 14.4049 4.32237C14.1002 4.07191 13.7853 3.9914 13.6328 4.12558ZM7.38533 9.15269C7.35485 9.2242 7.38533 9.34948 7.46661 9.44784C7.58848 9.59099 7.79164 9.60887 9.56946 9.63572C11.3878 9.66251 11.5605 9.6536 11.784 9.49257C11.9364 9.38523 11.9973 9.26893 11.9567 9.17948C11.8958 9.04529 11.6418 9.02741 9.66085 9.02741C7.84249 9.02741 7.42594 9.05426 7.38533 9.15269ZM13.4094 9.19741C13.3383 9.33154 13.3484 9.40311 13.4704 9.51045C13.6024 9.62675 13.9376 9.6536 15.5427 9.6536C17.615 9.6536 18.0113 9.59099 17.9604 9.26002C17.93 9.08111 17.869 9.07214 15.7256 9.04529C13.6328 9.02741 13.511 9.03638 13.4094 9.19741ZM7.50721 10.3781C7.34467 10.5212 7.32436 10.5838 7.42594 10.6912C7.51739 10.7896 7.93388 10.8164 9.56946 10.8164C10.7681 10.8164 11.6722 10.7806 11.7942 10.727C12.0278 10.6107 12.0481 10.3155 11.8247 10.244C11.7332 10.2171 10.7783 10.1903 9.69133 10.1903C7.8323 10.1903 7.71042 10.1992 7.50721 10.3781ZM13.5415 10.2529C13.3383 10.3155 13.3891 10.6197 13.6024 10.727C13.7243 10.7806 14.5979 10.8164 15.7256 10.8164C17.4627 10.8164 17.6659 10.7986 17.8182 10.6554C17.9706 10.4944 17.9706 10.4765 17.7979 10.3423C17.6354 10.2081 17.3408 10.1903 15.6341 10.1992C14.5472 10.1992 13.6024 10.2261 13.5415 10.2529ZM7.64946 11.4247C7.39545 11.4604 7.29388 11.6304 7.42594 11.8093C7.52752 11.9614 9.21388 12.0508 10.758 11.9793C11.6113 11.9435 11.8348 11.9077 11.9262 11.7825C12.1396 11.4784 11.8856 11.4337 9.8437 11.4157C8.75673 11.4068 7.77133 11.4068 7.64946 11.4247ZM14.3745 11.4068C13.5313 11.4694 13.4094 11.5141 13.4094 11.7557V11.9793L14.9128 11.9972C17.0157 12.024 17.6963 11.9882 17.8792 11.8361C18.0113 11.7288 18.0113 11.6931 17.8792 11.5767C17.7675 11.4873 17.3611 11.4426 16.3046 11.4157C15.5224 11.3889 14.6589 11.3889 14.3745 11.4068ZM7.52752 12.7575L7.28376 12.9006L7.51739 13.0706C7.72055 13.2137 7.95418 13.2316 9.70152 13.2316C11.4691 13.2316 11.6621 13.2137 11.8247 13.0706C11.977 12.9095 11.977 12.8917 11.8043 12.7575C11.5199 12.5338 7.88309 12.5338 7.52752 12.7575ZM13.4196 12.7664C13.3586 12.8648 13.3586 12.9811 13.4196 13.0795C13.511 13.2137 13.7345 13.2316 15.6239 13.2316C16.7821 13.2316 17.7878 13.1958 17.8588 13.1511C17.9401 13.1153 17.9808 12.9811 17.9604 12.8648L17.93 12.6501L15.7256 12.6233C13.6938 12.6054 13.511 12.6144 13.4196 12.7664ZM7.61897 13.8309C7.36503 13.9203 7.31418 14.0724 7.48691 14.2334C7.62915 14.3765 7.87291 14.3944 9.77261 14.3944C11.6113 14.3944 11.8958 14.3765 11.9567 14.2513C11.9872 14.1797 11.9364 14.0455 11.845 13.9651C11.7027 13.8309 11.3878 13.813 9.72182 13.7951C8.64497 13.7861 7.70024 13.7951 7.61897 13.8309ZM13.8665 13.8398C13.5212 13.8935 13.4602 13.9382 13.4602 14.1261V14.3497L15.6036 14.3765C17.4525 14.3944 17.7675 14.3765 17.8792 14.2603C17.9909 14.144 17.9808 14.0903 17.8487 13.9651C17.6963 13.8398 17.4119 13.813 15.9693 13.804C15.0348 13.7951 14.09 13.813 13.8665 13.8398ZM7.51739 15.1547C7.41582 15.2711 7.41582 15.3247 7.56818 15.4678C7.74085 15.6378 7.88309 15.6467 9.64055 15.6467C11.2152 15.6467 11.5707 15.6199 11.7637 15.5036C11.9872 15.3694 11.9872 15.3515 11.8247 15.1905C11.6621 15.0384 11.4894 15.0206 9.65067 15.0206C7.97455 15.0206 7.61897 15.0474 7.51739 15.1547ZM13.5922 15.119C13.3687 15.2352 13.3586 15.5215 13.5719 15.5931C13.8158 15.6735 17.7065 15.6557 17.8588 15.5662C17.9401 15.5304 17.9808 15.3963 17.9604 15.28L17.93 15.0653L15.8475 15.0474C14.5573 15.0295 13.6938 15.0563 13.5922 15.119ZM7.60879 16.3534C7.40564 16.4965 7.39545 16.5412 7.50721 16.6664C7.70024 16.8722 11.5199 16.8722 11.8348 16.6664C12.038 16.5323 12.038 16.5323 11.7942 16.3534C11.5808 16.2013 11.3878 16.1834 9.70152 16.1834C8.03545 16.1834 7.82212 16.2013 7.60879 16.3534ZM13.5415 16.246C13.3789 16.2997 13.3687 16.5591 13.5313 16.7022C13.7243 16.8722 17.5744 16.8543 17.8385 16.6754C18.0316 16.5412 18.0316 16.5412 17.7878 16.3623C17.5744 16.1924 17.4119 16.1834 15.6036 16.1924C14.537 16.1924 13.6024 16.2192 13.5415 16.246ZM4.06345 3.20425C3.99234 3.32053 3.96187 5.63728 3.96187 10.1008C3.96187 17.5252 3.99234 17.1405 3.31171 17.3463C3.07806 17.4089 2.89521 17.4089 2.66156 17.3373C2.03173 17.1495 2.03173 17.1584 2.03173 12.5607V8.40129H2.51934C2.87489 8.40129 3.0679 8.35657 3.18981 8.23135C3.35235 8.07032 3.35235 8.05244 3.12885 7.91826C2.86473 7.75723 1.82855 7.72148 1.51364 7.86457C1.33078 7.95402 1.32062 8.10608 1.32062 12.3818C1.32062 15.28 1.36125 16.8811 1.43236 17.0511C1.71681 17.7309 2.64124 18.1603 3.4133 17.9814C3.88059 17.874 4.38853 17.4267 4.56122 16.9974C4.72376 16.5501 4.72376 3.29369 4.55107 3.14163C4.36821 2.98062 4.18535 3.00746 4.06345 3.20425Z" fill="#555555"/>
</g>
</g>
</g>
</g>
<defs>
<clipPath id="clip0_1_664">
<rect width="20" height="20" fill="white" transform="translate(0 0.589966)"/>
</clipPath>
</defs>
</svg>
