<svg width="12" height="21" viewBox="0 0 12 21" fill="none" xmlns="http://www.w3.org/2000/svg">
<g id="webmau16.com-icon-dong-ho.svg" clip-path="url(#clip0_1_602)">
<g id="Clip path group">
<mask id="mask0_1_602" style="mask-type:luminance" maskUnits="userSpaceOnUse" x="0" y="0" width="12" height="21">
<g id="clip0_323_1018">
<path id="Vector" d="M11.554 0.25H0.333313V20.25H11.554V0.25Z" fill="white"/>
</g>
</mask>
<g mask="url(#mask0_1_602)">
<g id="Group">
<path id="Vector_2" d="M8.94125 4.6398H2.94577C2.25315 4.6406 1.58912 4.91609 1.09937 5.40585C0.609607 5.89561 0.334112 6.55963 0.333313 7.25225V13.2477C0.334112 13.9404 0.609595 14.6045 1.09934 15.0943C1.58909 15.5841 2.25311 15.8597 2.94577 15.8606H8.94125C9.63398 15.8598 10.2981 15.5843 10.7879 15.0944C11.2777 14.6046 11.5532 13.9405 11.554 13.2477V7.25225C11.5532 6.5596 11.2776 5.89557 10.7878 5.40583C10.298 4.91608 9.63391 4.64059 8.94125 4.6398ZM10.8748 13.2477C10.8742 13.7604 10.6703 14.2519 10.3078 14.6143C9.94531 14.9768 9.45385 15.1807 8.94125 15.1813H2.94577C2.43317 15.1807 1.94174 14.9768 1.57931 14.6143C1.21688 14.2518 1.01306 13.7603 1.01256 13.2477V7.25225C1.01316 6.73972 1.21703 6.24835 1.57945 5.88593C1.94186 5.52351 2.43323 5.31964 2.94577 5.31905H8.94125C9.45385 5.31954 9.94531 5.52337 10.3078 5.88579C10.6703 6.24823 10.8742 6.73965 10.8748 7.25225V13.2477Z" fill="#555555"/>
<path id="Vector_3" d="M9.64458 1.55566C9.64418 1.2095 9.50652 0.877633 9.26172 0.63286C9.01698 0.388088 8.68512 0.250399 8.33892 0.25H3.54649C3.20079 0.251098 2.8696 0.389094 2.6254 0.633791C2.3812 0.878488 2.24387 1.20996 2.24347 1.55566V3.72773H9.64572L9.64458 1.55566ZM8.96538 3.04849H2.92272V1.55566C2.92292 1.38959 2.98898 1.23037 3.10641 1.11294C3.22384 0.995507 3.38306 0.929447 3.54913 0.929247H8.34158C8.50765 0.929447 8.66685 0.995507 8.78432 1.11294C8.90172 1.23037 8.96778 1.38959 8.96798 1.55566L8.96538 3.04849Z" fill="#555555"/>
<path id="Vector_4" d="M2.24347 18.9443C2.24387 19.2905 2.38156 19.6224 2.62634 19.8671C2.8711 20.1119 3.20297 20.2496 3.54913 20.25H8.34158C8.68772 20.2496 9.01965 20.1119 9.26438 19.8671C9.50918 19.6224 9.64685 19.2905 9.64725 18.9443V16.7711H2.24347V18.9443ZM2.92272 17.4504H8.96652V18.9432C8.96632 19.1093 8.90025 19.2685 8.78278 19.3859C8.66538 19.5033 8.50618 19.5694 8.34005 19.5696H3.54762C3.38155 19.5694 3.22234 19.5033 3.1049 19.3859C2.98747 19.2685 2.92141 19.1093 2.92121 18.9432L2.92272 17.4504Z" fill="#555555"/>
<path id="Vector_5" d="M6.28313 10.0504V6.78133C6.28313 6.69126 6.24735 6.60487 6.18366 6.54118C6.11996 6.47749 6.03358 6.44171 5.94351 6.44171C5.85344 6.44171 5.76705 6.47749 5.70336 6.54118C5.63967 6.60487 5.60388 6.69126 5.60388 6.78133V10.3319L7.49256 12.2187C7.55616 12.2824 7.64249 12.3182 7.73256 12.3183C7.82263 12.3182 7.90896 12.2824 7.97256 12.2187C8.0041 12.1871 8.02916 12.1497 8.04623 12.1085C8.06329 12.0673 8.0721 12.0231 8.0721 11.9785C8.0721 11.9339 8.06329 11.8897 8.04623 11.8485C8.02916 11.8073 8.0041 11.7699 7.97256 11.7383L6.28313 10.0504Z" fill="#555555"/>
</g>
</g>
</g>
</g>
<defs>
<clipPath id="clip0_1_602">
<rect width="11.3333" height="20" fill="white" transform="translate(0.333313 0.25)"/>
</clipPath>
</defs>
</svg>
